<svg xmlns="http://www.w3.org/2000/svg" width="512" height="512" viewBox="0 0 512 512" version="1.1">
	<path d="M 420 1.117 C 418.625 1.662, 403.170 10.296, 385.655 20.304 C 350.699 40.277, 346.219 43.689, 341.096 54.238 C 337.026 62.620, 336.017 70.059, 336.008 91.750 L 336 110 326.582 110 C 315.527 110, 314.401 110.325, 312.463 114.072 C 310.361 118.137, 310.628 119.781, 313.923 123.077 C 316.747 125.901, 317.171 126, 326.423 126 L 336 126 336 149.500 L 336 173 296.500 173 L 257 173 257 149.500 L 257 126 271.066 126 C 285.181 126, 288.171 125.405, 290.718 122.087 C 292.736 119.458, 292.208 115.117, 289.545 112.455 L 287.091 110 251.295 110.016 C 216.097 110.033, 215.435 110.070, 211.604 112.266 C 203.598 116.857, 204 112.670, 204 191.382 L 204 261.295 195.671 260.655 C 185.280 259.856, 169.125 261.341, 158.060 264.111 C 120.016 273.637, 87.883 301.060, 72.413 337.204 C 44.392 402.670, 77.254 479.168, 144.219 504.356 C 158.980 509.909, 168.242 511.430, 187.500 511.466 C 201.137 511.492, 207.509 511.066, 213.791 509.711 C 221.961 507.949, 222.165 507.953, 227.791 509.991 C 233.399 512.024, 234.818 512.055, 308 511.780 L 382.500 511.500 388.196 508.830 C 395.463 505.424, 402.424 498.463, 405.830 491.196 L 408.500 485.500 408.786 414.500 C 408.943 375.450, 408.824 342.496, 408.521 341.268 C 408.219 340.041, 406.628 338.342, 404.986 337.493 L 402 335.949 402 326.474 C 402 320.550, 402.392 317, 403.045 317 C 403.620 317, 405.195 315.895, 406.545 314.545 L 409 312.091 409 216.932 C 409 121.860, 408.998 121.769, 406.882 118.004 C 403.597 112.159, 398.804 110, 389.114 110 L 381 110 381 92.091 L 381 74.183 410.100 57.442 C 426.105 48.235, 440.525 39.587, 442.144 38.225 C 453.981 28.265, 451.204 9.246, 436.843 1.920 C 432.746 -0.170, 424.270 -0.574, 420 1.117 M 381 149.500 L 381 173 387 173 L 393 173 393 149.500 L 393 126 387 126 L 381 126 381 149.500" stroke="none" fill="black" fill-rule="evenodd"/>
</svg>